<?xml version="1.0" standalone="no"?>
<!DOCTYPE svg PUBLIC "-//W3C//DTD SVG 1.1//EN" "http://www.w3.org/Graphics/SVG/1.1/DTD/svg11.dtd">
<svg width="50px" height="50px" version="1.1" xmlns="http://www.w3.org/2000/svg" xmlns:xlink="http://www.w3.org/1999/xlink" xml:space="preserve" style="fill-rule:evenodd;clip-rule:evenodd;stroke-linejoin:round;stroke-miterlimit:1.41421;">
    <g id="Capa_1">
        <g>
            <g>
                <path d="M24.9979,14.9535C19.4594,14.9535 14.9538,19.4593 14.9538,24.9977C14.9538,30.5361 19.4594,35.0419 24.9979,35.0419C30.5364,35.0419 35.0422,30.5362 35.0422,24.9977C35.0422,19.4594 30.5364,14.9535 24.9979,14.9535ZM24.9979,31.5727C21.3725,31.5727 18.423,28.6232 18.423,24.9977C18.423,21.3722 21.3725,18.4228 24.9979,18.4228C28.6233,18.4228 31.5729,21.3722 31.5729,24.9977C31.5728,28.6231 28.6233,31.5727 24.9979,31.5727Z" style="fill:white;fill-rule:nonzero;"/>
            </g>
            <g>
                <path d="M14.6446,15.0507C14.8691,15.2782 15.166,15.3931 15.4637,15.3931C15.7356,15.3931 16.008,15.2973 16.2264,15.1038C17.411,14.0544 18.756,13.2333 20.224,12.6634C20.7937,12.4422 21.0911,11.8145 20.9014,11.2335L20.5381,10.1215C20.4402,9.82191 20.2236,9.57554 19.9389,9.44001C19.6543,9.3044 19.3266,9.29174 19.0323,9.40457C17.1331,10.1332 15.3982,11.1921 13.8755,12.552C13.6406,12.7618 13.5019,13.0589 13.492,13.3739C13.4821,13.6887 13.6018,13.994 13.823,14.2183Z" style="fill:white;fill-rule:nonzero;"/>
            </g>
            <g>
                <path d="M10.6428,25.3052C10.6449,25.3052 10.647,25.3052 10.649,25.3052C11.2586,25.3052 11.7628,24.8293 11.7976,24.2201C11.8876,22.6399 12.2557,21.1091 12.8917,19.6703C13.139,19.1106 12.9051,18.4552 12.3593,18.1788L11.3158,17.6503C11.0348,17.508 10.7079,17.487 10.4113,17.5923C10.1146,17.6975 9.87388,17.9198 9.74541,18.2073C8.91487,20.066 8.4387,22.0445 8.33032,24.0876C8.3136,24.4018 8.42635,24.7092 8.64227,24.9381C8.85819,25.1669 9.1584,25.2975 9.47311,25.2991Z" style="fill:white;fill-rule:nonzero;"/>
            </g>
            <g>
                <path d="M37.3454,20.2576C37.5207,20.7126 37.9552,20.9948 38.419,20.9948C38.5364,20.9948 38.656,20.9767 38.7735,20.9386L39.8863,20.5784C40.1862,20.4813 40.4331,20.2654 40.5693,19.9812C40.7055,19.6971 40.7193,19.3693 40.6072,19.0748C39.884,17.1735 38.8295,15.4352 37.4731,13.9084C37.2637,13.6729 36.9671,13.5335 36.6523,13.5227C36.3361,13.5118 36.0319,13.6308 35.807,13.8515L34.9722,14.6708C34.536,15.0991 34.5106,15.7939 34.9149,16.2526C35.9615,17.44 36.7792,18.7875 37.3454,20.2576Z" style="fill:white;fill-rule:nonzero;"/>
            </g>
            <g>
                <path d="M25.8106,11.7995C27.3901,11.8935 28.9197,12.2657 30.3573,12.9057C30.5091,12.9734 30.6681,13.0055 30.8248,13.0055C31.2448,13.0055 31.6478,12.7743 31.8503,12.3774L32.3818,11.3353C32.5246,11.0548 32.5465,10.728 32.4421,10.431C32.3377,10.1339 32.1161,9.89271 31.829,9.76354C29.9724,8.92787 27.9951,8.44641 25.9521,8.33266C25.6387,8.31494 25.3302,8.42708 25.1006,8.64246C24.8712,8.85792 24.7399,9.1579 24.7375,9.47253L24.7285,10.6422C24.7238,11.2545 25.1995,11.7631 25.8106,11.7995Z" style="fill:white;fill-rule:nonzero;"/>
            </g>
            <g>
                <path d="M12.6759,29.8039C12.4532,29.235 11.8244,28.9394 11.2443,29.1307L10.1334,29.4969C9.834,29.5956 9.58824,29.8128 9.45348,30.0978C9.31871,30.3829 9.30682,30.7105 9.42049,31.0045C10.154,32.9016 11.2176,34.6338 12.5816,36.1529C12.792,36.3874 13.0895,36.5252 13.4045,36.5343C13.4156,36.5346 13.4267,36.5348 13.4378,36.5348C13.7409,36.5348 14.0322,36.4151 14.248,36.201L15.0784,35.3772C15.5124,34.9468 15.5339,34.2518 15.1273,33.7953C14.0747,32.6135 13.25,31.2706 12.6759,29.8039Z" style="fill:white;fill-rule:nonzero;"/>
            </g>
            <g>
                <path d="M41.3535,24.9708C41.1365,24.7431 40.8354,24.6142 40.5208,24.6142L39.3511,24.6142C38.7388,24.6142 38.2338,25.0939 38.2022,25.7055C38.1206,27.2862 37.7605,28.819 37.1323,30.2611C36.8879,30.8221 37.1253,31.4763 37.6726,31.7498L38.719,32.2727C38.8804,32.3534 39.0566,32.3942 39.2335,32.3942C39.3653,32.3942 39.4972,32.3715 39.6239,32.3258C39.9199,32.219 40.1593,31.9955 40.2864,31.7075C41.107,29.8446 41.5727,27.8637 41.6703,25.8197C41.685,25.5053 41.5707,25.1985 41.3535,24.9708Z" style="fill:white;fill-rule:nonzero;"/>
            </g>
            <g>
                <path d="M35.4037,34.8897C34.9719,34.4566 34.2771,34.4371 33.8216,34.8449C32.6423,35.9007 31.3016,36.7289 29.8368,37.3069C29.2685,37.5311 28.9744,38.1604 29.1672,38.7402L29.5363,39.8503C29.6359,40.1493 29.8537,40.3946 30.1389,40.5286C30.2936,40.6013 30.4607,40.6378 30.628,40.6378C30.7695,40.6378 30.9111,40.6117 31.0458,40.5593C32.9408,39.8208 34.6703,38.7527 36.1859,37.3847C36.4199,37.1736 36.5569,36.8757 36.5652,36.5608C36.5733,36.2459 36.4521,35.9413 36.2297,35.7183Z" style="fill:white;fill-rule:nonzero;"/>
            </g>
            <g>
                <path d="M24.2551,38.2C22.6744,38.114 21.1426,37.75 19.7023,37.118C19.1419,36.8721 18.4873,37.1077 18.2122,37.6544L17.6864,38.699C17.5448,38.9802 17.5248,39.3073 17.6308,39.6037C17.7367,39.9001 17.9597,40.1402 18.2474,40.2679C20.1081,41.0936 22.0878,41.5644 24.1315,41.6676C24.1509,41.6687 24.1702,41.6692 24.1895,41.6692C24.4834,41.6692 24.7669,41.5567 24.9812,41.3536C25.2095,41.137 25.3392,40.8364 25.3401,40.5217L25.3432,39.352C25.3449,38.7395 24.8666,38.2332 24.2551,38.2Z" style="fill:white;fill-rule:nonzero;"/>
            </g>
        </g>
    </g>
</svg>
